<svg width="88" height="24" viewBox="0 0 88 24" fill="none" xmlns="http://www.w3.org/2000/svg">
<path d="M13 20.5879C12.3711 20.5879 11.7581 20.5218 11.1611 20.3896C10.5641 20.262 9.98991 20.0775 9.43848 19.8359C9.639 19.6126 9.81217 19.3802 9.95801 19.1387C10.1084 18.9017 10.2132 18.6898 10.2725 18.5029C10.6963 18.6761 11.1406 18.8083 11.6055 18.8994C12.0749 18.9906 12.5374 19.0361 12.9932 19.0361C13.7269 19.0361 14.431 18.9336 15.1055 18.7285C15.7845 18.528 16.4089 18.2454 16.9785 17.8809C17.5527 17.5163 18.054 17.0947 18.4824 16.6162C18.2637 16.3473 17.9788 16.0898 17.6279 15.8438C17.277 15.5931 16.8669 15.3698 16.3975 15.1738C15.9281 14.9733 15.4062 14.8138 14.832 14.6953C14.2624 14.5768 13.6494 14.5176 12.9932 14.5176C12.5648 14.5176 12.1569 14.5449 11.7695 14.5996C11.3822 14.6543 11.013 14.7249 10.6621 14.8115C10.5163 14.2054 10.2747 13.6426 9.9375 13.123C9.60026 12.6035 9.18783 12.1501 8.7002 11.7627C8.21712 11.3753 7.67708 11.0723 7.08008 10.8535C6.48763 10.6348 5.85872 10.5254 5.19336 10.5254C4.99284 10.5254 4.79688 10.5368 4.60547 10.5596C4.41406 10.5778 4.22493 10.6074 4.03809 10.6484C4.12923 9.74609 4.35026 8.88932 4.70117 8.07812C5.05208 7.26237 5.50553 6.51725 6.06152 5.84277C6.61751 5.16829 7.25781 4.58724 7.98242 4.09961C8.70703 3.60742 9.49089 3.22689 10.334 2.95801C11.1816 2.68913 12.068 2.55469 12.9932 2.55469C13.9821 2.55469 14.9255 2.70736 15.8232 3.0127C16.721 3.31803 17.5459 3.7487 18.2979 4.30469C19.0544 4.86068 19.7083 5.51465 20.2598 6.2666C20.8158 7.01855 21.2464 7.84342 21.5518 8.74121C21.8617 9.639 22.0166 10.5824 22.0166 11.5713C22.0166 12.5602 21.8639 13.5036 21.5586 14.4014C21.2533 15.2992 20.8226 16.124 20.2666 16.876C19.7106 17.6279 19.0566 18.2819 18.3047 18.8379C17.5527 19.3939 16.7279 19.8245 15.8301 20.1299C14.9323 20.4352 13.9889 20.5879 13 20.5879ZM12.9932 13C13.5583 13.0046 14.0687 12.8587 14.5244 12.5625C14.9847 12.2663 15.347 11.8675 15.6113 11.3662C15.8802 10.8604 16.0146 10.293 16.0146 9.66406C16.0146 9.07161 15.8802 8.5293 15.6113 8.03711C15.3424 7.54036 14.9779 7.14388 14.5176 6.84766C14.0618 6.55143 13.5537 6.40332 12.9932 6.40332C12.4281 6.40332 11.9154 6.55143 11.4551 6.84766C10.9948 7.14388 10.6302 7.54036 10.3613 8.03711C10.0924 8.5293 9.96029 9.07161 9.96484 9.66406C9.9694 10.293 10.1038 10.8581 10.3682 11.3594C10.637 11.8607 10.9993 12.2594 11.4551 12.5557C11.9108 12.8473 12.4235 12.9954 12.9932 13ZM5.2002 20.6426C4.58496 20.6426 4.00618 20.5264 3.46387 20.2939C2.92611 20.0615 2.44987 19.738 2.03516 19.3232C1.62044 18.9131 1.29688 18.4368 1.06445 17.8945C0.832031 17.3522 0.71582 16.7757 0.71582 16.165C0.71582 15.5498 0.832031 14.9733 1.06445 14.4355C1.29688 13.8932 1.62044 13.4147 2.03516 13C2.44987 12.5853 2.92611 12.2617 3.46387 12.0293C4.00618 11.7969 4.58496 11.6807 5.2002 11.6807C5.81543 11.6807 6.39193 11.7969 6.92969 12.0293C7.47201 12.2617 7.94824 12.5853 8.3584 13C8.77311 13.4102 9.09668 13.8864 9.3291 14.4287C9.56152 14.971 9.67773 15.5498 9.67773 16.165C9.67773 16.7757 9.55924 17.3499 9.32227 17.8877C9.08984 18.43 8.76628 18.9085 8.35156 19.3232C7.93685 19.738 7.45833 20.0615 6.91602 20.2939C6.37826 20.5264 5.80632 20.6426 5.2002 20.6426ZM5.2002 19.0156C5.36882 19.0156 5.50326 18.9632 5.60352 18.8584C5.70378 18.7581 5.75391 18.626 5.75391 18.4619V16.7188H7.49023C7.65885 16.7188 7.79329 16.6686 7.89355 16.5684C7.99382 16.4681 8.04395 16.3337 8.04395 16.165C8.04395 15.9919 7.99382 15.8551 7.89355 15.7549C7.79329 15.6546 7.65885 15.6045 7.49023 15.6045H5.75391V13.875C5.75391 13.7109 5.70378 13.5788 5.60352 13.4785C5.50326 13.3737 5.36882 13.3213 5.2002 13.3213C5.03158 13.3213 4.89714 13.3737 4.79688 13.4785C4.69661 13.5788 4.64648 13.7109 4.64648 13.875V15.6045H2.91016C2.74154 15.6045 2.60482 15.6546 2.5 15.7549C2.39974 15.8551 2.34961 15.9919 2.34961 16.165C2.34961 16.3337 2.40202 16.4681 2.50684 16.5684C2.61165 16.6686 2.74609 16.7188 2.91016 16.7188H4.64648V18.4619C4.64648 18.626 4.69661 18.7581 4.79688 18.8584C4.89714 18.9632 5.03158 19.0156 5.2002 19.0156Z" fill="#00BDD3"/>
<path d="M37.1079 17.144C36.2226 17.144 35.4119 17.032 34.6759 16.808C33.9399 16.5733 33.3159 16.248 32.8039 15.832L33.3319 14.52C33.8653 14.9253 34.4359 15.2293 35.0439 15.432C35.6519 15.6347 36.3399 15.736 37.1079 15.736C38.0146 15.736 38.6813 15.576 39.1079 15.256C39.5453 14.9253 39.7639 14.4987 39.7639 13.976C39.7639 13.5493 39.6093 13.2133 39.2999 12.968C38.9906 12.712 38.4733 12.5093 37.7479 12.36L36.0359 12.008C35.0226 11.7947 34.2653 11.4427 33.7639 10.952C33.2733 10.4613 33.0279 9.8 33.0279 8.968C33.0279 8.296 33.2039 7.704 33.5559 7.192C33.9186 6.68 34.4199 6.28533 35.0599 6.008C35.6999 5.72 36.4359 5.576 37.2679 5.576C38.0359 5.576 38.7453 5.69333 39.3959 5.928C40.0573 6.152 40.6173 6.48267 41.0759 6.92L40.5319 8.184C39.6253 7.384 38.5319 6.984 37.2519 6.984C36.4626 6.984 35.8333 7.16 35.3639 7.512C34.9053 7.864 34.6759 8.33333 34.6759 8.92C34.6759 9.368 34.8199 9.72533 35.1079 9.992C35.3959 10.2587 35.8759 10.4613 36.5479 10.6L38.2439 10.952C39.3106 11.176 40.1053 11.5227 40.6279 11.992C41.1506 12.4507 41.4119 13.0747 41.4119 13.864C41.4119 14.5253 41.2359 15.1013 40.8839 15.592C40.5319 16.0827 40.0359 16.4667 39.3959 16.744C38.7559 17.0107 37.9933 17.144 37.1079 17.144ZM43.0811 7.384V5.704H44.9691V7.384H43.0811ZM43.2251 17V9.192H44.8411V17H43.2251ZM50.7517 20.024C50.0477 20.024 49.3917 19.9387 48.7837 19.768C48.1757 19.608 47.637 19.352 47.1677 19L47.6637 17.848C48.133 18.168 48.613 18.4027 49.1037 18.552C49.5944 18.7013 50.1064 18.776 50.6397 18.776C52.133 18.776 52.8797 18.0293 52.8797 16.536V15.304C52.6557 15.7733 52.3037 16.1413 51.8237 16.408C51.3544 16.6747 50.8264 16.808 50.2397 16.808C49.5357 16.808 48.9224 16.648 48.3997 16.328C47.877 15.9973 47.4717 15.544 47.1837 14.968C46.8957 14.3813 46.7517 13.6987 46.7517 12.92C46.7517 12.152 46.8957 11.48 47.1837 10.904C47.4717 10.3173 47.877 9.864 48.3997 9.544C48.9224 9.21333 49.5357 9.048 50.2397 9.048C50.837 9.048 51.3704 9.18133 51.8397 9.448C52.309 9.71467 52.6557 10.0827 52.8797 10.552V9.192H54.4477V16.344C54.4477 17.5707 54.133 18.488 53.5037 19.096C52.8744 19.7147 51.957 20.024 50.7517 20.024ZM50.6237 15.544C51.3064 15.544 51.8504 15.3093 52.2557 14.84C52.661 14.3707 52.8637 13.7307 52.8637 12.92C52.8637 12.1093 52.661 11.4747 52.2557 11.016C51.8504 10.5467 51.3064 10.312 50.6237 10.312C49.941 10.312 49.397 10.5467 48.9917 11.016C48.5864 11.4747 48.3837 12.1093 48.3837 12.92C48.3837 13.7307 48.5864 14.3707 48.9917 14.84C49.397 15.3093 49.941 15.544 50.6237 15.544ZM56.8157 17V9.192H58.3837V10.488C58.6504 10.0187 59.013 9.66133 59.4717 9.416C59.941 9.17067 60.4637 9.048 61.0397 9.048C62.885 9.048 63.8077 10.0933 63.8077 12.184V17H62.1917V12.28C62.1917 11.608 62.0584 11.1173 61.7917 10.808C61.5357 10.4987 61.1304 10.344 60.5757 10.344C59.925 10.344 59.4024 10.552 59.0077 10.968C58.6237 11.3733 58.4317 11.912 58.4317 12.584V17H56.8157ZM73.2216 17.144C71.3336 17.144 70.3896 16.0933 70.3896 13.992V9.192H72.0056V14.008C72.0056 14.6373 72.1336 15.1013 72.3896 15.4C72.6456 15.6987 73.0509 15.848 73.6056 15.848C74.2136 15.848 74.7042 15.6453 75.0776 15.24C75.4616 14.8347 75.6536 14.2907 75.6536 13.608V9.192H77.2696V17H75.7016V15.752C75.4456 16.2107 75.1042 16.5573 74.6776 16.792C74.2509 17.0267 73.7656 17.144 73.2216 17.144ZM79.6469 19.88V9.192H81.2309V10.52C81.4549 10.072 81.7963 9.71467 82.2549 9.448C82.7136 9.18133 83.2416 9.048 83.8389 9.048C84.5323 9.048 85.1349 9.21333 85.6469 9.544C86.1696 9.87467 86.5696 10.344 86.8469 10.952C87.1349 11.5493 87.2789 12.264 87.2789 13.096C87.2789 13.928 87.1349 14.648 86.8469 15.256C86.5696 15.864 86.1696 16.3333 85.6469 16.664C85.1349 16.984 84.5323 17.144 83.8389 17.144C83.2629 17.144 82.7456 17.0213 82.2869 16.776C81.8389 16.52 81.4976 16.1733 81.2629 15.736V19.88H79.6469ZM83.4389 15.896C84.1109 15.896 84.6443 15.656 85.0389 15.176C85.4443 14.696 85.6469 14.0027 85.6469 13.096C85.6469 12.1893 85.4443 11.5013 85.0389 11.032C84.6443 10.552 84.1109 10.312 83.4389 10.312C82.7669 10.312 82.2283 10.552 81.8229 11.032C81.4283 11.5013 81.2309 12.1893 81.2309 13.096C81.2309 14.0027 81.4283 14.696 81.8229 15.176C82.2283 15.656 82.7669 15.896 83.4389 15.896Z" fill="#00BDD3"/>
</svg>
