<svg width="92" height="24" viewBox="0 0 92 24" fill="none" xmlns="http://www.w3.org/2000/svg">
<path d="M4.90723 19.5488C4.23275 19.5488 3.75651 19.4463 3.47852 19.2412C3.20052 19.0407 3.06152 18.7399 3.06152 18.3389C3.06152 17.8877 3.17318 17.4137 3.39648 16.917C3.61979 16.4202 3.94108 15.9395 4.36035 15.4746C4.78418 15.0052 5.29688 14.5814 5.89844 14.2031C6.50456 13.8203 7.19271 13.5173 7.96289 13.2939C8.73307 13.0706 9.57389 12.959 10.4854 12.959C11.4014 12.959 12.2445 13.0706 13.0146 13.2939C13.7848 13.5173 14.4707 13.8203 15.0723 14.2031C15.6784 14.5814 16.1934 15.0052 16.6172 15.4746C17.041 15.9395 17.3623 16.4202 17.5811 16.917C17.8044 17.4137 17.916 17.8877 17.916 18.3389C17.916 18.7399 17.777 19.0407 17.499 19.2412C17.221 19.4463 16.7448 19.5488 16.0703 19.5488H4.90723ZM10.4922 11.3867C9.84961 11.3867 9.26172 11.2158 8.72852 10.874C8.19531 10.5277 7.76693 10.0628 7.44336 9.47949C7.12435 8.8916 6.96484 8.23079 6.96484 7.49707C6.96484 6.96842 7.05599 6.47396 7.23828 6.01367C7.42513 5.54883 7.68034 5.14323 8.00391 4.79688C8.33203 4.44596 8.71029 4.17253 9.13867 3.97656C9.56706 3.7806 10.0182 3.68262 10.4922 3.68262C10.9753 3.68262 11.4287 3.7806 11.8525 3.97656C12.2764 4.16797 12.6501 4.43685 12.9736 4.7832C13.3018 5.12956 13.5592 5.53288 13.7461 5.99316C13.9329 6.45345 14.0264 6.9502 14.0264 7.4834C14.0264 8.22168 13.8646 8.88477 13.541 9.47266C13.222 10.0605 12.7936 10.5277 12.2559 10.874C11.7227 11.2158 11.1348 11.3867 10.4922 11.3867ZM20.5068 12.959C21.4183 12.959 22.2591 13.0706 23.0293 13.2939C23.7995 13.5173 24.4854 13.8203 25.0869 14.2031C25.693 14.5814 26.2057 15.0052 26.625 15.4746C27.0488 15.9395 27.3724 16.4202 27.5957 16.917C27.819 17.4137 27.9307 17.8877 27.9307 18.3389C27.9307 18.7399 27.7917 19.0407 27.5137 19.2412C27.2357 19.4463 26.7572 19.5488 26.0781 19.5488H18.7295C18.9346 19.2161 19.0371 18.8128 19.0371 18.3389C19.0371 17.4958 18.8092 16.6891 18.3535 15.9189C17.9023 15.1488 17.2985 14.4674 16.542 13.875C17.0934 13.597 17.6995 13.376 18.3604 13.2119C19.0257 13.0433 19.7412 12.959 20.5068 12.959ZM20.5068 11.3867C19.8688 11.3867 19.2809 11.2158 18.7432 10.874C18.21 10.5277 17.7816 10.0628 17.458 9.47949C17.139 8.8916 16.9795 8.23079 16.9795 7.49707C16.9749 6.96842 17.0661 6.47396 17.2529 6.01367C17.4398 5.54883 17.695 5.14323 18.0186 4.79688C18.3467 4.44596 18.7227 4.17253 19.1465 3.97656C19.5749 3.7806 20.0283 3.68262 20.5068 3.68262C20.9899 3.68262 21.4434 3.7806 21.8672 3.97656C22.291 4.16797 22.6647 4.43685 22.9883 4.7832C23.3164 5.12956 23.5739 5.53288 23.7607 5.99316C23.9476 6.45345 24.041 6.9502 24.041 7.4834C24.041 8.22168 23.8792 8.88477 23.5557 9.47266C23.2367 10.0605 22.8083 10.5277 22.2705 10.874C21.7373 11.2158 21.1494 11.3867 20.5068 11.3867ZM30.5078 12.959C31.4193 12.959 32.2578 13.0706 33.0234 13.2939C33.7936 13.5173 34.4818 13.8203 35.0879 14.2031C35.694 14.5814 36.2067 15.0052 36.626 15.4746C37.0498 15.9395 37.3734 16.4202 37.5967 16.917C37.82 17.4137 37.9316 17.8877 37.9316 18.3389C37.9316 18.7399 37.7926 19.0407 37.5146 19.2412C37.2367 19.4463 36.7604 19.5488 36.0859 19.5488H28.7373C28.9469 19.2161 29.0518 18.8128 29.0518 18.3389C29.0518 17.4958 28.8239 16.6891 28.3682 15.9189C27.917 15.1442 27.3109 14.4606 26.5498 13.8682C27.0967 13.5947 27.7005 13.376 28.3613 13.2119C29.0267 13.0433 29.7422 12.959 30.5078 12.959ZM30.5146 11.3867C29.8721 11.3867 29.2819 11.2158 28.7441 10.874C28.2109 10.5277 27.7826 10.0628 27.459 9.47949C27.14 8.8916 26.9805 8.23079 26.9805 7.49707C26.9759 6.96842 27.0671 6.47396 27.2539 6.01367C27.4408 5.54883 27.6982 5.14323 28.0264 4.79688C28.3545 4.44596 28.7305 4.17253 29.1543 3.97656C29.5781 3.7806 30.0316 3.68262 30.5146 3.68262C30.9932 3.68262 31.4443 3.7806 31.8682 3.97656C32.292 4.16797 32.6657 4.43685 32.9893 4.7832C33.3174 5.12956 33.5749 5.53288 33.7617 5.99316C33.9486 6.45345 34.042 6.9502 34.042 7.4834C34.042 8.22168 33.8802 8.88477 33.5566 9.47266C33.2376 10.0605 32.8092 10.5277 32.2715 10.874C31.7383 11.2158 31.1527 11.3867 30.5146 11.3867Z" fill="#00BDD3"/>
<path d="M54.8126 17.144C53.3086 17.144 52.1566 16.7493 51.3566 15.96C50.5673 15.16 50.1726 13.992 50.1726 12.456V5.72H51.8366V12.424C51.8366 14.6107 52.8286 15.704 54.8126 15.704C56.7966 15.704 57.7886 14.6107 57.7886 12.424V5.72H59.4206V12.456C59.4206 13.992 59.0313 15.16 58.2526 15.96C57.474 16.7493 56.3273 17.144 54.8126 17.144ZM64.647 17.144C64.007 17.144 63.4097 17.064 62.855 16.904C62.3003 16.7333 61.8363 16.4987 61.463 16.2L61.927 15.112C62.3217 15.3893 62.7537 15.6027 63.223 15.752C63.703 15.9013 64.183 15.976 64.663 15.976C65.2283 15.976 65.655 15.8747 65.943 15.672C66.231 15.4693 66.375 15.1973 66.375 14.856C66.375 14.5787 66.279 14.3653 66.087 14.216C65.895 14.056 65.607 13.9333 65.223 13.848L63.703 13.544C62.359 13.2667 61.687 12.5733 61.687 11.464C61.687 10.728 61.9803 10.1413 62.567 9.704C63.1537 9.26667 63.9217 9.048 64.871 9.048C65.415 9.048 65.9323 9.128 66.423 9.288C66.9243 9.448 67.3403 9.688 67.671 10.008L67.207 11.096C66.887 10.8187 66.519 10.6053 66.103 10.456C65.687 10.3067 65.2763 10.232 64.871 10.232C64.3163 10.232 63.895 10.3387 63.607 10.552C63.319 10.7547 63.175 11.032 63.175 11.384C63.175 11.9173 63.527 12.2587 64.231 12.408L65.751 12.712C66.4443 12.8507 66.967 13.0853 67.319 13.416C67.6817 13.7467 67.863 14.1947 67.863 14.76C67.863 15.5067 67.5697 16.0933 66.983 16.52C66.3963 16.936 65.6177 17.144 64.647 17.144ZM73.425 17.144C72.145 17.144 71.137 16.7867 70.401 16.072C69.665 15.3467 69.297 14.36 69.297 13.112C69.297 12.312 69.457 11.608 69.777 11C70.1077 10.3813 70.561 9.90133 71.137 9.56C71.713 9.21867 72.3743 9.048 73.121 9.048C74.1983 9.048 75.0463 9.39467 75.665 10.088C76.2837 10.7707 76.593 11.7147 76.593 12.92V13.464H70.865C70.9823 15.0853 71.841 15.896 73.441 15.896C73.889 15.896 74.3263 15.8267 74.753 15.688C75.1903 15.5493 75.601 15.32 75.985 15L76.465 16.12C76.113 16.44 75.6597 16.6907 75.105 16.872C74.5503 17.0533 73.9903 17.144 73.425 17.144ZM73.185 10.184C72.513 10.184 71.9797 10.392 71.585 10.808C71.1903 11.224 70.9503 11.7787 70.865 12.472H75.233C75.201 11.7467 75.009 11.1867 74.657 10.792C74.305 10.3867 73.8143 10.184 73.185 10.184ZM78.4547 17V9.192H80.0227V10.584C80.4281 9.656 81.2707 9.13867 82.5507 9.032L83.0787 9L83.1907 10.376L82.2147 10.472C80.7961 10.6107 80.0867 11.3413 80.0867 12.664V17H78.4547ZM87.1814 17.144C86.5414 17.144 85.944 17.064 85.3894 16.904C84.8347 16.7333 84.3707 16.4987 83.9974 16.2L84.4614 15.112C84.856 15.3893 85.288 15.6027 85.7574 15.752C86.2374 15.9013 86.7174 15.976 87.1974 15.976C87.7627 15.976 88.1894 15.8747 88.4774 15.672C88.7654 15.4693 88.9094 15.1973 88.9094 14.856C88.9094 14.5787 88.8134 14.3653 88.6214 14.216C88.4294 14.056 88.1414 13.9333 87.7574 13.848L86.2374 13.544C84.8934 13.2667 84.2214 12.5733 84.2214 11.464C84.2214 10.728 84.5147 10.1413 85.1014 9.704C85.688 9.26667 86.456 9.048 87.4054 9.048C87.9494 9.048 88.4667 9.128 88.9574 9.288C89.4587 9.448 89.8747 9.688 90.2054 10.008L89.7414 11.096C89.4214 10.8187 89.0534 10.6053 88.6374 10.456C88.2214 10.3067 87.8107 10.232 87.4054 10.232C86.8507 10.232 86.4294 10.3387 86.1414 10.552C85.8534 10.7547 85.7094 11.032 85.7094 11.384C85.7094 11.9173 86.0614 12.2587 86.7654 12.408L88.2854 12.712C88.9787 12.8507 89.5014 13.0853 89.8534 13.416C90.216 13.7467 90.3974 14.1947 90.3974 14.76C90.3974 15.5067 90.104 16.0933 89.5174 16.52C88.9307 16.936 88.152 17.144 87.1814 17.144Z" fill="#00BDD3"/>
</svg>
